<svg width="160" height="160" viewBox="0 0 160 160" fill="none" xmlns="http://www.w3.org/2000/svg">
    <circle cx="80" cy="80" r="80" fill="#1B252F"/>
    <path d="M76.0625 79.1075L32.75 60.89V101.472C32.7728 103.165 33.2792 104.815 34.2095 106.229C35.1397 107.643 36.4549 108.762 38 109.452L75.7475 127.25H76.0625V79.1075ZM80 72.125L124.678 53.3825C123.927 52.545 123.017 51.8666 122 51.3875L84.2 33.695C82.8871 33.0736 81.4526 32.7512 80 32.7512C78.5474 32.7512 77.1129 33.0736 75.8 33.695L38 51.3875C36.983 51.8666 36.0725 52.545 35.3225 53.3825L80 72.125ZM83.9375 79.1075V127.25H84.2L122 109.452C123.537 108.765 124.847 107.655 125.777 106.251C126.706 104.848 127.217 103.208 127.25 101.525V60.89L83.9375 79.1075Z" fill="white"/>
</svg>
