<svg width="300" height="79" viewBox="0 0 300 79" fill="none" xmlns="http://www.w3.org/2000/svg">
    <rect width="300" height="79" rx="8" fill="white"/>
    <path d="M30.7587 58V29.6364H39.3453V34.8438H39.6593C40.2502 33.1203 41.2473 31.7599 42.6507 30.7628C44.0542 29.7656 45.7284 29.267 47.6735 29.267C49.6432 29.267 51.3297 29.7718 52.7331 30.7812C54.1365 31.7907 55.0291 33.1449 55.4107 34.8438H55.7061C56.2355 33.1572 57.2696 31.8092 58.8084 30.7997C60.3472 29.7779 62.1631 29.267 64.2559 29.267C66.9396 29.267 69.1186 30.1288 70.7928 31.8523C72.467 33.5634 73.3042 35.9148 73.3042 38.9062V58H64.2743V40.9744C64.2743 39.5587 63.9112 38.4815 63.1848 37.7429C62.4585 36.992 61.5168 36.6165 60.3596 36.6165C59.1162 36.6165 58.1375 37.0227 57.4235 37.8352C56.7218 38.6354 56.3709 39.7126 56.3709 41.0668V58H47.6919V40.8821C47.6919 39.5649 47.3349 38.5246 46.6209 37.7614C45.9069 36.9981 44.9651 36.6165 43.7956 36.6165C43.0078 36.6165 42.3122 36.8073 41.709 37.1889C41.1058 37.5582 40.6318 38.0876 40.2871 38.777C39.9547 39.4664 39.7885 40.2789 39.7885 41.2145V58H30.7587ZM92.1394 58.5355C89.1602 58.5355 86.5996 57.9261 84.4576 56.7074C82.3278 55.4763 80.6844 53.7652 79.5272 51.5739C78.3823 49.3703 77.8098 46.8158 77.8098 43.9105C77.8098 40.9929 78.3823 38.4384 79.5272 36.2472C80.6844 34.0436 82.3278 32.3324 84.4576 31.1136C86.5996 29.8826 89.1602 29.267 92.1394 29.267C95.1185 29.267 97.673 29.8826 99.8027 31.1136C101.945 32.3324 103.588 34.0436 104.733 36.2472C105.89 38.4384 106.469 40.9929 106.469 43.9105C106.469 46.8158 105.89 49.3703 104.733 51.5739C103.588 53.7652 101.945 55.4763 99.8027 56.7074C97.673 57.9261 95.1185 58.5355 92.1394 58.5355ZM92.1948 51.7216C93.2781 51.7216 94.1953 51.3892 94.9462 50.7244C95.6971 50.0597 96.2696 49.1364 96.6635 47.9545C97.0698 46.7727 97.2729 45.4062 97.2729 43.8551C97.2729 42.2794 97.0698 40.9006 96.6635 39.7188C96.2696 38.5369 95.6971 37.6136 94.9462 36.9489C94.1953 36.2841 93.2781 35.9517 92.1948 35.9517C91.0745 35.9517 90.1266 36.2841 89.351 36.9489C88.5878 37.6136 88.003 38.5369 87.5968 39.7188C87.2028 40.9006 87.0059 42.2794 87.0059 43.8551C87.0059 45.4062 87.2028 46.7727 87.5968 47.9545C88.003 49.1364 88.5878 50.0597 89.351 50.7244C90.1266 51.3892 91.0745 51.7216 92.1948 51.7216ZM143.885 58.5355C140.894 58.5355 138.327 57.92 136.185 56.6889C134.055 55.4579 132.418 53.7467 131.273 51.5554C130.128 49.3518 129.556 46.8035 129.556 43.9105C129.556 41.0052 130.128 38.4569 131.273 36.2656C132.43 34.062 134.074 32.3447 136.204 31.1136C138.346 29.8826 140.9 29.267 143.867 29.267C146.489 29.267 148.773 29.741 150.718 30.6889C152.675 31.6368 154.202 32.9787 155.297 34.7145C156.405 36.438 156.99 38.4631 157.052 40.7898H148.613C148.44 39.3371 147.948 38.1984 147.135 37.3736C146.335 36.5488 145.289 36.1364 143.996 36.1364C142.95 36.1364 142.033 36.4318 141.245 37.0227C140.457 37.6013 139.841 38.4631 139.398 39.608C138.967 40.7405 138.752 42.1439 138.752 43.8182C138.752 45.4924 138.967 46.9081 139.398 48.0653C139.841 49.2102 140.457 50.0781 141.245 50.669C142.033 51.2476 142.95 51.5369 143.996 51.5369C144.833 51.5369 145.572 51.3584 146.212 51.0014C146.865 50.6444 147.4 50.1212 147.819 49.4318C148.237 48.7301 148.502 47.8807 148.613 46.8835H157.052C156.965 49.2225 156.381 51.2661 155.297 53.0142C154.226 54.7623 152.718 56.1226 150.773 57.0952C148.84 58.0554 146.545 58.5355 143.885 58.5355ZM170.703 20.1818V58H161.673V20.1818H170.703ZM189.69 58.5355C186.711 58.5355 184.15 57.9261 182.008 56.7074C179.879 55.4763 178.235 53.7652 177.078 51.5739C175.933 49.3703 175.361 46.8158 175.361 43.9105C175.361 40.9929 175.933 38.4384 177.078 36.2472C178.235 34.0436 179.879 32.3324 182.008 31.1136C184.15 29.8826 186.711 29.267 189.69 29.267C192.669 29.267 195.224 29.8826 197.354 31.1136C199.496 32.3324 201.139 34.0436 202.284 36.2472C203.441 38.4384 204.02 40.9929 204.02 43.9105C204.02 46.8158 203.441 49.3703 202.284 51.5739C201.139 53.7652 199.496 55.4763 197.354 56.7074C195.224 57.9261 192.669 58.5355 189.69 58.5355ZM189.746 51.7216C190.829 51.7216 191.746 51.3892 192.497 50.7244C193.248 50.0597 193.82 49.1364 194.214 47.9545C194.621 46.7727 194.824 45.4062 194.824 43.8551C194.824 42.2794 194.621 40.9006 194.214 39.7188C193.82 38.5369 193.248 37.6136 192.497 36.9489C191.746 36.2841 190.829 35.9517 189.746 35.9517C188.625 35.9517 187.677 36.2841 186.902 36.9489C186.139 37.6136 185.554 38.5369 185.148 39.7188C184.754 40.9006 184.557 42.2794 184.557 43.8551C184.557 45.4062 184.754 46.7727 185.148 47.9545C185.554 49.1364 186.139 50.0597 186.902 50.7244C187.677 51.3892 188.625 51.7216 189.746 51.7216ZM226.945 45.7571V29.6364H235.956V58H227.351V52.7188H227.056C226.428 54.4545 225.357 55.8333 223.843 56.8551C222.341 57.8646 220.525 58.3693 218.395 58.3693C216.463 58.3693 214.764 57.9261 213.299 57.0398C211.834 56.1534 210.695 54.9162 209.883 53.3281C209.07 51.7277 208.658 49.8565 208.645 47.7145V29.6364H217.675V45.9418C217.688 47.4806 218.094 48.6932 218.894 49.5795C219.694 50.4659 220.784 50.9091 222.162 50.9091C223.061 50.9091 223.867 50.7121 224.581 50.3182C225.308 49.9119 225.88 49.3272 226.299 48.5639C226.73 47.7884 226.945 46.8527 226.945 45.7571ZM252.063 58.4062C249.971 58.4062 248.069 57.8646 246.357 56.7812C244.646 55.6979 243.28 54.0729 242.258 51.9062C241.236 49.7396 240.725 47.0497 240.725 43.8366C240.725 40.5005 241.255 37.7552 242.313 35.6009C243.372 33.4465 244.757 31.8523 246.468 30.8182C248.192 29.7841 250.044 29.267 252.026 29.267C253.516 29.267 254.79 29.5256 255.849 30.0426C256.908 30.5473 257.782 31.1998 258.471 32C259.16 32.8002 259.684 33.6312 260.041 34.4929H260.225V20.1818H269.255V58H260.318V53.402H260.041C259.659 54.276 259.117 55.0947 258.416 55.858C257.714 56.6212 256.834 57.2367 255.775 57.7045C254.729 58.1723 253.491 58.4062 252.063 58.4062ZM255.203 51.3707C256.298 51.3707 257.234 51.063 258.009 50.4474C258.785 49.8196 259.382 48.9394 259.801 47.8068C260.219 46.6742 260.428 45.3447 260.428 43.8182C260.428 42.267 260.219 40.9313 259.801 39.8111C259.394 38.6908 258.797 37.8291 258.009 37.2259C257.234 36.6226 256.298 36.321 255.203 36.321C254.082 36.321 253.134 36.6288 252.359 37.2443C251.583 37.8598 250.992 38.7277 250.586 39.848C250.192 40.9683 249.995 42.2917 249.995 43.8182C249.995 45.3447 250.198 46.6742 250.605 47.8068C251.011 48.9394 251.596 49.8196 252.359 50.4474C253.134 51.063 254.082 51.3707 255.203 51.3707Z" fill="#1B252F"/>
    <path d="M127.215 29.6364V36.2841H108.971V29.6364H127.215ZM112.775 58V28.196C112.775 26.0047 113.187 24.1889 114.012 22.7486C114.837 21.2959 115.982 20.2126 117.447 19.4986C118.912 18.7723 120.605 18.4091 122.525 18.4091C123.781 18.4091 124.963 18.5076 126.07 18.7045C127.191 18.8892 128.022 19.0554 128.563 19.2031L127.123 25.8139C126.791 25.7031 126.384 25.6108 125.904 25.5369C125.436 25.4631 124.993 25.4261 124.575 25.4261C123.516 25.4261 122.79 25.66 122.396 26.1278C122.002 26.5956 121.805 27.2358 121.805 28.0483V58H112.775Z" fill="#FC9F00"/>
</svg>
